# xmcd
#
# Track frame offsets:
#	150
#	19572
#	34982
#	43403
#	48496
#	66864
#	84533
#	93264
#	100061
#	108431
#	115069
#	120389
#	132057
#	151836
#	160872
#	172128
#	180396
#	185567
#	195487
#	214929
#	223999
#	235140
#	243238
#	248908
#	265511
#	274796
#	282902
#	290105
#
# Disc length: 3955 seconds
#
# Revision: 1
# Processed by: cddbd v1.5.2PL0 Copyright (c) Steve Scherf et al.
# Submitted via: audiograbber 1.83.01
#
DISCID=940f711c
DTITLE=VARIOS - CELEBRAÇOES ESPECIAIS III
DYEAR=2006
DGENRE=LITURGICO
TTITLE0=MISSA DO SAGRADO CORAÇÃO DE JESUS - Deus Grande
TTITLE1=MISSA DO SAGRADO CORAÇÃO DE JESUS - Glória a Deus
TTITLE2=MISSA DO SAGRADO CORAÇÃO DE JESUS - Sou Bom Pastor
TTITLE3=MISSA DO SAGRADO CORAÇÃO DE JESUS - Aleluia, Aleluia!
TTITLE4=MISSA DO SAGRADO CORAÇÃO DE JESUS - Venho e pão, frutos da terra
TTITLE5=MISSA DO SAGRADO CORAÇÃO DE JESUS - Jesus, pão da vida
TTITLE6=MISSA DO SAGRADO CORAÇÃO DE JESUS - Se um dia caíres no caminho
TTITLE7=MISSA DO SAGRADO CORAÇÃO DE JESUS - Sem fronteiras é teu Reino
TTITLE8=MISSA DE NOSSA SENHORA - Protegida por uma mulher
TTITLE9=MISSA DE NOSSA SENHORA - És, Maria, a Virgem que sabe ouvir
TTITLE10=MISSA DE NOSSA SENHORA - Aleluia, aleluia!
TTITLE11=MISSA DE NOSSA SENHORA - Sobe a Jerusalém
TTITLE12=MISSA DE NOSSA SENHORA - Quando teu Pai revelou o segredo a Maria
TTITLE13=MISSA DE NOSSA SENHORA - Ave sempre bela
TTITLE14=MISSA DO PADROEIRO - Ó Senhor nós estamos aqui
TTITLE15=MISSA DO PADROEIRO - Glória nas alturas!
TTITLE16=MISSA DO PADROEIRO - Aleluia, aleluia!
TTITLE17=MISSA DO PADROEIRO - É prova de amor
TTITLE18=MISSA DO PADROEIRO - Na mesa sagrada
TTITLE19=MISSA DO PADROEIRO - Juntos vamos para a luta
TTITLE20=MISSA DE AÇÃO DE GRAÇAS - Vimos hoje cantar
TTITLE21=MISSA DE AÇÃO DE GRAÇAS - Cantemos louvores
TTITLE22=MISSA DE AÇÃO DE GRAÇAS - Graças vos damos, Senhor
TTITLE23=MISSA DE AÇÃO DE GRAÇAS - De graça recebemos
TTITLE24=MISSA DE AÇÃO DE GRAÇAS - Tudo é dom do Sonhor
TTITLE25=MISSA DE AÇÃO DE GRAÇAS - Bom é louvar o Senhor
TTITLE26=MISSA DE AÇÃO DE GRAÇAS - Aleluia, aleluia!
TTITLE27=MISSA DE AÇÃO DE GRAÇAS - No Reino que padece violência
EXTD=
EXTT0=
EXTT1=
EXTT2=
EXTT3=
EXTT4=
EXTT5=
EXTT6=
EXTT7=
EXTT8=
EXTT9=
EXTT10=
EXTT11=
EXTT12=
EXTT13=
EXTT14=
EXTT15=
EXTT16=
EXTT17=
EXTT18=
EXTT19=
EXTT20=
EXTT21=
EXTT22=
EXTT23=
EXTT24=
EXTT25=
EXTT26=
EXTT27=
PLAYORDER=
